<svg xmlns="http://www.w3.org/2000/svg" width="20" height="20" viewBox="0 0 20 20" fill="none">
<path d="M3.02068 7.10098L5.44986 7.10098C5.57622 7.10098 5.67862 7.20337 5.67862 7.32973C5.67862 7.45609 5.57622 7.55849 5.44986 7.55849L3.02068 7.55849C2.52613 7.55849 2.12418 7.96045 2.12418 8.455C2.12418 8.94955 2.52613 9.35151 3.02068 9.35151L3.45532 9.35151C3.58168 9.35151 3.68408 9.4539 3.68408 9.58026C3.68408 9.70662 3.58168 9.80902 3.45532 9.80902L3.02068 9.80902C2.27341 9.80902 1.66666 9.20118 1.66666 8.455C1.66666 7.70882 2.2745 7.10098 3.02068 7.10098Z" fill="#777A7B"/>
<path d="M3.29188 4.84939L5.74393 4.84939C5.87029 4.84939 5.97269 4.95179 5.97269 5.07815C5.97269 5.20451 5.87029 5.3069 5.74393 5.3069L3.29188 5.3069C2.79732 5.3069 2.39537 5.70886 2.39537 6.20341C2.39537 6.69796 2.79732 7.09992 3.29187 7.09992C3.41824 7.09992 3.52063 7.20232 3.52063 7.32868C3.52063 7.45504 3.41824 7.55743 3.29187 7.55743C2.5446 7.55743 1.93785 6.94959 1.93785 6.20341C1.93785 5.45723 2.54569 4.84939 3.29188 4.84939Z" fill="#777A7B"/>
<path d="M8.72429 2.59559C9.21121 2.59559 9.72646 2.62936 10.2918 2.69907C10.9171 2.77641 11.4792 2.85593 12.0282 3.06182C12.2406 3.14134 12.4508 3.24809 12.6894 3.39624C12.7199 3.41584 12.7504 3.43436 12.7809 3.45397C12.9476 3.55963 13.1055 3.65985 13.2809 3.71432C13.3691 3.74155 13.4759 3.73937 13.5892 3.7361C13.6197 3.73501 13.6502 3.73501 13.6829 3.73392L14.1948 3.72957L14.197 3.72957C14.3223 3.72957 14.4247 3.83087 14.4258 3.95615C14.4269 4.08251 14.3256 4.18599 14.1992 4.18708L13.6872 4.19144C13.66 4.19144 13.6317 4.19253 13.6022 4.19362C13.4639 4.19688 13.306 4.20124 13.1458 4.15113C12.9127 4.07815 12.7221 3.95723 12.5369 3.83959L12.4487 3.78403C12.2373 3.65223 12.0532 3.55854 11.8691 3.48992C11.367 3.30255 10.8332 3.2263 10.2373 3.15332C9.59138 3.0738 9.01404 3.04221 8.47265 3.05637L3.8387 3.05637C3.34415 3.05637 2.94219 3.45833 2.94219 3.95288C2.94219 4.44743 3.34415 4.84939 3.8387 4.84939C3.96506 4.84939 4.06745 4.95178 4.06745 5.07814C4.06745 5.2045 3.96506 5.3069 3.8387 5.3069C3.09143 5.3069 2.48467 4.69906 2.48467 3.95288C2.48467 3.2056 3.09251 2.59885 3.8387 2.59886L8.46394 2.59886C8.54891 2.59668 8.63605 2.59559 8.72429 2.59559ZM3.45526 9.35153L5.30274 9.35153C5.4291 9.35153 5.5315 9.45393 5.5315 9.58029C5.5315 9.70665 5.4291 9.80905 5.30274 9.80905L3.45526 9.80905C2.96071 9.80905 2.55875 10.211 2.55875 10.7056C2.55875 11.2001 2.96071 11.6021 3.45526 11.6021L8.21231 11.6021C8.33867 11.6021 8.44106 11.7045 8.44106 11.8308C8.44106 12.2273 8.35827 12.6053 8.19597 12.9528C8.11863 13.1173 8.03693 13.2796 7.95741 13.4365C7.79401 13.7589 7.63933 14.0639 7.52495 14.394C7.24608 15.199 7.02386 16.3602 7.54455 17.3199C7.55545 17.3362 7.56743 17.3526 7.58159 17.3722C7.7537 17.6042 7.97375 17.7698 8.20141 17.8395C8.54999 17.9463 8.92036 17.8253 9.10228 17.5454C9.2123 17.3776 9.21339 17.1717 9.20358 16.9408C9.18942 16.5988 9.20358 16.2916 9.24607 16.0018C9.34084 15.3569 9.54345 14.7938 9.84737 14.3286C9.88659 14.2644 10.3288 13.5498 11.0598 12.7883C11.5031 12.3276 11.9596 11.9463 12.4193 11.6554C13.002 11.2862 13.5903 11.0607 14.1676 10.9855C14.2929 10.9692 14.4073 11.0574 14.4236 11.1827C14.4399 11.3079 14.3517 11.4223 14.2264 11.4387C13.0609 11.5901 12.0413 12.4289 11.3909 13.1053C10.6763 13.8493 10.2417 14.5617 10.2384 14.5683C10.2373 14.5705 10.2352 14.5726 10.2341 14.5748C9.96611 14.9844 9.78637 15.4866 9.70031 16.0672C9.66219 16.3286 9.64912 16.6075 9.66219 16.9212C9.67417 17.2088 9.66981 17.5127 9.48681 17.7937C9.33757 18.0225 9.11862 18.1881 8.85173 18.273C8.60228 18.3526 8.3245 18.3537 8.0696 18.2752C7.74935 18.1772 7.44652 17.9528 7.21667 17.6434C7.19379 17.6129 7.17527 17.5857 7.15785 17.5595C7.15458 17.5552 7.1524 17.5497 7.14913 17.5454C6.54238 16.4375 6.78421 15.138 7.09358 14.2426C7.21776 13.882 7.38769 13.5498 7.55109 13.2273C7.62952 13.0737 7.70904 12.9147 7.78311 12.7567C7.88551 12.5367 7.94978 12.3025 7.97375 12.0563L3.45635 12.0563C2.70907 12.0563 2.10232 11.4485 2.10232 10.7023C2.10124 9.95937 2.70907 9.35153 3.45526 9.35153Z" fill="#777A7B"/>
<path d="M14.196 2.69256L18.1044 2.69256C18.2308 2.69256 18.3332 2.79496 18.3332 2.92132L18.3332 12.1914C18.3332 12.3178 18.2308 12.4202 18.1044 12.4202L14.196 12.4202C14.0696 12.4202 13.9672 12.3178 13.9672 12.1914L13.9672 2.92132C13.9672 2.79496 14.0696 2.69256 14.196 2.69256ZM17.8757 3.15007L14.4247 3.15007L14.4247 11.9627L17.8757 11.9627L17.8757 3.15007Z" fill="#777A7B"/>
</svg>