<svg xmlns="http://www.w3.org/2000/svg" width="20" height="20" viewBox="0 0 20 20" fill="none">
<path d="M16.9793 13.7323H14.5501C14.4237 13.7323 14.3214 13.6299 14.3214 13.5036C14.3214 13.3772 14.4237 13.2748 14.5501 13.2748H16.9793C17.4738 13.2748 17.8758 12.8729 17.8758 12.3783C17.8758 11.8838 17.4738 11.4818 16.9793 11.4818H16.5446C16.4183 11.4818 16.3159 11.3794 16.3159 11.253C16.3159 11.1267 16.4183 11.0243 16.5446 11.0243H16.9793C17.7266 11.0243 18.3333 11.6321 18.3333 12.3783C18.3333 13.1245 17.7255 13.7323 16.9793 13.7323Z" fill="#777A7B"/>
<path d="M16.7081 15.9839H14.256C14.1297 15.9839 14.0273 15.8815 14.0273 15.7552C14.0273 15.6288 14.1297 15.5264 14.256 15.5264H16.7081C17.2026 15.5264 17.6046 15.1245 17.6046 14.6299C17.6046 14.1354 17.2026 13.7334 16.7081 13.7334C16.5817 13.7334 16.4793 13.631 16.4793 13.5046C16.4793 13.3783 16.5817 13.2759 16.7081 13.2759C17.4554 13.2759 18.0621 13.8837 18.0621 14.6299C18.0621 15.3761 17.4543 15.9839 16.7081 15.9839Z" fill="#777A7B"/>
<path d="M11.2757 18.2377C10.7888 18.2377 10.2735 18.204 9.70816 18.1342C9.08289 18.0569 8.5208 17.9774 7.97178 17.7715C7.75937 17.692 7.54913 17.5852 7.31057 17.4371C7.28007 17.4175 7.24957 17.3989 7.21907 17.3793C7.0524 17.2737 6.89445 17.1735 6.71907 17.119C6.63083 17.0918 6.52408 17.0939 6.41079 17.0972C6.38029 17.0983 6.34979 17.0983 6.31711 17.0994L5.80513 17.1037H5.80295C5.67768 17.1037 5.57529 17.0024 5.5742 16.8772C5.57311 16.7508 5.67441 16.6473 5.80077 16.6462L6.31275 16.6419C6.33999 16.6419 6.36831 16.6408 6.39772 16.6397C6.53606 16.6364 6.69402 16.6321 6.85415 16.6822C7.08726 16.7552 7.27789 16.8761 7.46307 16.9937L7.55131 17.0493C7.76264 17.1811 7.94673 17.2748 8.13083 17.3434C8.633 17.5308 9.16677 17.607 9.76262 17.68C10.4086 17.7595 10.9859 17.7911 11.5273 17.7769H16.1613C16.6558 17.7769 17.0578 17.375 17.0578 16.8804C17.0578 16.3859 16.6558 15.9839 16.1613 15.9839C16.0349 15.9839 15.9325 15.8815 15.9325 15.7552C15.9325 15.6288 16.0349 15.5264 16.1613 15.5264C16.9085 15.5264 17.5153 16.1343 17.5153 16.8804C17.5153 17.6277 16.9075 18.2345 16.1613 18.2345H11.536C11.4511 18.2366 11.3639 18.2377 11.2757 18.2377ZM16.5447 11.4818H14.6972C14.5709 11.4818 14.4685 11.3794 14.4685 11.253C14.4685 11.1267 14.5709 11.0243 14.6972 11.0243H16.5447C17.0393 11.0243 17.4412 10.6223 17.4412 10.1278C17.4412 9.63321 17.0393 9.23125 16.5447 9.23125H11.7877C11.6613 9.23125 11.5589 9.12885 11.5589 9.00249C11.5589 8.60598 11.6417 8.22799 11.804 7.88049C11.8813 7.71601 11.963 7.5537 12.0426 7.39684C12.206 7.0744 12.3606 6.76939 12.475 6.43933C12.7539 5.63432 12.9761 4.47311 12.4554 3.51342C12.4445 3.49708 12.4325 3.48074 12.4184 3.46113C12.2463 3.22911 12.0262 3.06353 11.7986 2.99381C11.45 2.88706 11.0796 3.00798 10.8977 3.28793C10.7877 3.45569 10.7866 3.66157 10.7964 3.8925C10.8105 4.23455 10.7964 4.54173 10.7539 4.83149C10.6591 5.47637 10.4565 6.03955 10.1526 6.50469C10.1134 6.56895 9.67112 7.28355 8.94019 8.04498C8.49684 8.50576 8.04041 8.88702 7.58072 9.17787C6.99794 9.54715 6.4097 9.77264 5.83237 9.8478C5.70709 9.86414 5.59272 9.77591 5.57638 9.65064C5.56004 9.52536 5.64827 9.41098 5.77354 9.39465C6.93911 9.24323 7.95871 8.40446 8.60904 7.72799C9.32363 6.98398 9.75827 6.27157 9.76153 6.26504C9.76262 6.26286 9.7648 6.26068 9.76589 6.2585C10.0339 5.84892 10.2136 5.34674 10.2997 4.76613C10.3378 4.5047 10.3509 4.22583 10.3378 3.91211C10.3258 3.62453 10.3302 3.32061 10.5132 3.03957C10.6624 2.81081 10.8814 2.64523 11.1482 2.56027C11.3977 2.48075 11.6755 2.47966 11.9304 2.55809C12.2506 2.65613 12.5535 2.88053 12.7833 3.18989C12.8062 3.22039 12.8247 3.24763 12.8421 3.27377C12.8454 3.27813 12.8476 3.28357 12.8508 3.28793C13.4576 4.39577 13.2158 5.69532 12.9064 6.59074C12.7822 6.95131 12.6123 7.28355 12.4489 7.60599C12.3704 7.75958 12.2909 7.91862 12.2169 8.07657C12.1145 8.29661 12.0502 8.53082 12.0262 8.777H16.5436C17.2909 8.777 17.8976 9.38484 17.8976 10.131C17.8987 10.8739 17.2909 11.4818 16.5447 11.4818Z" fill="#777A7B"/>
<path d="M5.80401 18.1408H1.89554C1.76917 18.1408 1.66678 18.0384 1.66678 17.912V8.6419C1.66678 8.51554 1.76917 8.41315 1.89554 8.41315H5.80401C5.93037 8.41315 6.03276 8.51554 6.03276 8.6419V17.912C6.03276 18.0384 5.93037 18.1408 5.80401 18.1408ZM2.12429 17.6832H5.57525V8.87066H2.12429V17.6832Z" fill="#777A7B"/>
</svg>